<?xml version="1.0" encoding="utf-8"?>
<!-- Generator: Adobe Illustrator 21.0.2, SVG Export Plug-In . SVG Version: 6.00 Build 0)  -->
<svg version="1.1" id="Layer_1" xmlns="http://www.w3.org/2000/svg" xmlns:xlink="http://www.w3.org/1999/xlink" x="0px" y="0px"
	 viewBox="0 0 500 500" style="enable-background:new 0 0 500 500;" xml:space="preserve">
<style type="text/css">
	.st0{fill:#FFFFFF;}
</style>
<g>
	<path d="M112.8,162.5c-12.3,0-22.3-10-22.3-22.3v-13.3c0-12.3,10-22.3,22.3-22.3h289.3c12.3,0,22.3,10,22.3,22.3v13.3
		c0,12.3-10,22.3-22.3,22.3H112.8z"/>
	<path class="st0" d="M402.2,105c12,0,21.8,9.8,21.8,21.8v13.3c0,12-9.8,21.8-21.8,21.8H112.8c-12,0-21.8-9.8-21.8-21.8v-13.3
		c0-12,9.8-21.8,21.8-21.8H402.2 M402.2,104H112.8c-12.6,0-22.8,10.2-22.8,22.8v13.3c0,12.6,10.2,22.8,22.8,22.8h289.3
		c12.6,0,22.8-10.2,22.8-22.8v-13.3C425,114.2,414.8,104,402.2,104L402.2,104z"/>
</g>
<g>
	<path d="M112.8,386.5c-12.3,0-22.3-10-22.3-22.3v-13.3c0-12.3,10-22.3,22.3-22.3h289.3c12.3,0,22.3,10,22.3,22.3v13.3
		c0,12.3-10,22.3-22.3,22.3H112.8z"/>
	<path class="st0" d="M402.2,329c12,0,21.8,9.8,21.8,21.8v13.3c0,12-9.8,21.8-21.8,21.8H112.8c-12,0-21.8-9.8-21.8-21.8v-13.3
		c0-12,9.8-21.8,21.8-21.8H402.2 M402.2,328H112.8c-12.6,0-22.8,10.2-22.8,22.8v13.3c0,12.6,10.2,22.8,22.8,22.8h289.3
		c12.6,0,22.8-10.2,22.8-22.8v-13.3C425,338.2,414.8,328,402.2,328L402.2,328z"/>
</g>
<g>
	<path d="M182.8,274.5c-12.3,0-22.3-10-22.3-22.3v-13.3c0-12.3,10-22.3,22.3-22.3h216.3c12.3,0,22.3,10,22.3,22.3v13.3
		c0,12.3-10,22.3-22.3,22.3H182.8z"/>
	<path class="st0" d="M399.2,217c12,0,21.8,9.8,21.8,21.8v13.3c0,12-9.8,21.8-21.8,21.8H182.8c-12,0-21.8-9.8-21.8-21.8v-13.3
		c0-12,9.8-21.8,21.8-21.8H399.2 M399.2,216H182.8c-12.6,0-22.8,10.2-22.8,22.8v13.3c0,12.6,10.2,22.8,22.8,22.8h216.3
		c12.6,0,22.8-10.2,22.8-22.8v-13.3C422,226.2,411.8,216,399.2,216L399.2,216z"/>
</g>
</svg>
